<svg width="16" height="16" version="1.1" viewBox="0 0 16 16" xmlns="http://www.w3.org/2000/svg">
 <path d="m2.4615 2.6278c-0.8285 0-1.511 0.68245-1.511 1.511v8.0268h0.0052c-0.0098 0.62812 0.50123 1.2067 1.1706 1.2067h9.7524c0.62788 0 1.194-0.39184 1.4146-0.97977l1.6815-4.4764v-0.00132c0.2874-0.7536-0.29103-1.5936-1.0978-1.5936h-0.16723v-0.50365c0-0.8285-0.68245-1.511-1.511-1.511h-4.5184l-1.5005-1.2506a0.50372 0.50372 0 0 0-6.716e-4 0c-0.33175-0.27643-0.74976-0.42824-1.1817-0.42824h-2.5359zm0 1.0073h2.5359c0.19662 0 0.38606 0.068953 0.53709 0.19477l1.6408 1.3673a0.50372 0.50372 0 0 0 0.32265 0.11673h4.7007c0.28423 0 0.50365 0.21942 0.50365 0.50365v0.50365h-8.5778c-0.62788 0-1.194 0.39184-1.4146 0.97977l-0.75218 2.0028v-5.1651c0-0.28423 0.21942-0.50365 0.50365-0.50365zm1.6631 3.6934h9.7523c0.13426 0 0.20462 0.10246 0.15674 0.22756a0.50372 0.50372 0 0 0-0.0013 0.00327l-1.6821 4.4791c-0.07421 0.19778-0.25998 0.32659-0.47152 0.32659h-9.7524c-0.13354 0-0.20427-0.1017-0.15739-0.22625a0.50372 0.50372 0 0 0 6.55e-4 -6.72e-4l1.6834-4.4831c0.07421-0.19778 0.25998-0.32659 0.47152-0.32659z" fill="#fff" stroke-width=".33577"/>
</svg>
