<svg width="16" height="16" enable-background="new 0 0 119.827 122.88" version="1.1" viewBox="0 0 16 16" xmlns="http://www.w3.org/2000/svg">
 <g transform="matrix(.12518 0 0 .12207 .5 .5)" fill="#a0aec0">
  <path d="m78.693 87.06c-0.221-0.22-0.406-0.46-0.561-0.715-8.213 6.447-18.564 10.292-29.814 10.292-13.343 0-25.423-5.408-34.167-14.152-8.743-8.745-14.151-20.824-14.151-34.167s5.408-25.422 14.152-34.166 20.824-14.152 34.167-14.152 25.421 5.408 34.165 14.152 14.152 20.823 14.152 34.166c0 12.808-4.984 24.451-13.117 33.099 0.148 0.108 0.291 0.229 0.424 0.363l34.787 34.737c1.457 1.449 1.463 3.807 0.014 5.265-1.449 1.457-3.807 1.464-5.264 0.015zm-49.235-35.008c-2.062 0-3.733-1.671-3.733-3.733s1.672-3.733 3.733-3.733h15.126v-15.127c0-2.062 1.671-3.733 3.733-3.733s3.733 1.672 3.733 3.733v15.126h15.126c2.063 0 3.732 1.672 3.732 3.733 0 2.062-1.67 3.733-3.732 3.733h-15.125v15.126c0 2.062-1.671 3.733-3.733 3.733s-3.733-1.672-3.733-3.733v-15.125zm47.624-32.497c-7.361-7.361-17.53-11.914-28.763-11.914s-21.403 4.553-28.764 11.914-11.914 17.53-11.914 28.763 4.553 21.403 11.914 28.764 17.531 11.914 28.764 11.914 21.402-4.553 28.763-11.914c7.361-7.36 11.914-17.53 11.914-28.764s-4.553-21.402-11.914-28.763z" fill="#a0aec0"/>
 </g>
</svg>
