<svg width="16" height="16" enable-background="new 0 0 119.828 122.88" version="1.1" viewBox="0 0 16 16" xmlns="http://www.w3.org/2000/svg">
 <path d="m6.5486 0.50008c1.6702 0 3.1823 0.66016 4.2769 1.7275 1.0945 1.0673 1.7715 2.542 1.7715 4.1706 0 1.5635-0.62391 2.9847-1.642 4.0402 0.01853 0.01331 0.03642 0.02808 0.05307 0.04444l4.3546 4.2404c0.18239 0.17687 0.18339 0.46471 0.0018 0.6427-0.18139 0.17797-0.47656 0.17871-0.65895 0.0018l-4.3546-4.2404c-0.02767-0.02686-0.05108-0.05616-0.07023-0.08728-1.0281 0.78699-2.324 1.2563-3.7321 1.2563-1.6702 0-3.1823-0.66016-4.2771-1.7275-1.0945-1.0674-1.7714-2.5419-1.7714-4.1708 0-1.6287 0.67697-3.1033 1.7715-4.1706 1.0945-1.0673 2.6067-1.7275 4.2769-1.7275zm3.6007 2.3871c-0.92145-0.89869-2.1945-1.4543-3.6007-1.4543-1.4062 0-2.6792 0.55578-3.6007 1.4543-0.92145 0.89844-1.4914 2.14-1.4914 3.5112 0 1.3714 0.56995 2.6127 1.4914 3.5112 0.92145 0.89856 2.1945 1.4543 3.6007 1.4543 1.4062 0 2.6791-0.55578 3.6007-1.4543 0.92146-0.89844 1.4914-2.14 1.4914-3.5112 0-1.3714-0.56995-2.6128-1.4914-3.5112z" fill="#a0aec0" stroke-width=".12362"/>
</svg>
