<svg width="16" height="16" data-name="Layer 1" version="1.1" viewBox="0 0 16 16" xmlns="http://www.w3.org/2000/svg">
 <g fill="#444444">
  <path class="cls-1" d="m8.0019 6.999h-1.0029v4.9967h1.0029z" stroke-width="0px"/>
  <circle cx="7.4783" cy="4.5062" r=".64479" stroke-width=".030295"/>
  <path d="m7.5124 0.99999c-3.8739 0-7.0123 3.1477-7.0123 7 0 3.8524 3.1385 7 7.0123 7 3.8739 0 6.9876-3.1477 6.9876-7 0-3.8524-3.1136-7-6.9876-7zm0 1.0103c3.2967 0 5.968 2.6579 5.968 5.9897 0 3.3317-2.6713 6.0138-5.968 6.0138s-5.9928-2.6819-5.9928-6.0138c0-3.3317 2.6962-5.9897 5.9928-5.9897z" stroke-width="12.522"/>
 </g>
</svg>
