<svg width="156" height="190" version="1.1" viewBox="0 0 156 190" xmlns="http://www.w3.org/2000/svg">
 <path d="m65.964 25.605c-23.087 0-41.884 18.797-41.884 41.884 0 23.087 18.797 41.884 41.884 41.884 9.8102 0 18.839-3.4027 25.987-9.0777a5.0768 5.0768 0 0 0 0.88496 1.2444l32.999 32.999a5.0768 5.0768 0 0 0 7.1788 0 5.0768 5.0768 0 0 0 0-7.1788l-32.999-32.999a5.0768 5.0768 0 0 0-1.2444-0.88497c5.6751-7.148 9.0778-16.176 9.0778-25.987 0-23.087-18.797-41.884-41.884-41.884zm0 7.6152c18.971 0 34.268 15.298 34.268 34.268 0 18.971-15.298 34.268-34.268 34.268-18.971 0-34.268-15.298-34.268-34.268 0-18.971 15.298-34.268 34.268-34.268z" fill="#bbb" fill-opacity=".35135" stroke-width="1.2692"/>
 <path d="m25.617 169.04v-13.513h2.6547l5.5307 9.0242v-9.0242h2.5349v13.513h-2.7377l-5.4477-8.8122v8.8122zm12.988-5.0329q0-1.2905 0.63603-2.498 0.63603-1.2075 1.7975-1.8436 1.1707-0.63603 2.6086-0.63603 2.2215 0 3.641 1.4472 1.4195 1.438 1.4195 3.641 0 2.2215-1.438 3.6871-1.4288 1.4564-3.6042 1.4564-1.3458 0-2.5718-0.60837-1.2167-0.60838-1.8528-1.779-0.63603-1.1799-0.63603-2.8667zm2.6547 0.13827q0 1.4564 0.69133 2.2307 0.69133 0.77429 1.7053 0.77429t1.6961-0.77429q0.69133-0.7743 0.69133-2.2491 0-1.438-0.69133-2.2123-0.68212-0.7743-1.6961-0.7743t-1.7053 0.7743q-0.69133 0.77429-0.69133 2.2307zm14.527-4.8946h2.3874v1.3366q1.2813-1.5578 3.0511-1.5578 0.94021 0 1.6315 0.38715t1.1338 1.1707q0.64524-0.78351 1.3919-1.1707 0.74664-0.38715 1.5947-0.38715 1.0785 0 1.8251 0.44246 0.74664 0.43323 1.1154 1.2813 0.26732 0.6268 0.26732 2.0279v6.2589h-2.5902v-5.5952q0-1.4564-0.26732-1.8804-0.35949-0.55307-1.1061-0.55307-0.54385 0-1.0232 0.33184-0.47932 0.33184-0.69133 0.97709-0.21201 0.63602-0.21201 2.0187v4.7011h-2.5902v-5.3647q0-1.4288-0.13827-1.8436-0.13827-0.4148-0.43324-0.6176-0.28575-0.20279-0.78351-0.20279-0.59916 0-1.0785 0.32263-0.47932 0.32262-0.69133 0.93099-0.20279 0.60837-0.20279 2.0187v4.7564h-2.5902zm18.915 2.9866-2.3505-0.42402q0.39636-1.4195 1.3642-2.1016 0.96787-0.68212 2.8759-0.68212 1.7329 0 2.581 0.4148 0.84804 0.40558 1.1891 1.0416 0.35028 0.62681 0.35028 2.3137l-0.02765 3.0234q0 1.2905 0.11983 1.9081 0.12905 0.60837 0.47011 1.3089h-2.5625q-0.1014-0.25809-0.24888-0.76507-0.06452-0.23045-0.09218-0.30419-0.66368 0.64525-1.4195 0.96787-0.75586 0.32262-1.6131 0.32262-1.5117 0-2.3874-0.82038-0.86647-0.82038-0.86647-2.074 0-0.8296 0.39636-1.4748 0.39636-0.65447 1.1061-0.99552 0.71899-0.35028 2.0648-0.60838 1.8159-0.34105 2.5165-0.63602v-0.2581q0-0.74664-0.36871-1.06-0.36871-0.32263-1.3919-0.32263-0.69133 0-1.0785 0.27654-0.38715 0.26731-0.62681 0.94943zm3.4659 2.1016q-0.49776 0.16592-1.5762 0.39636-1.0785 0.23045-1.4103 0.45167-0.50698 0.3595-0.50698 0.91256 0 0.54385 0.40558 0.94022 0.40558 0.39636 1.0324 0.39636 0.70055 0 1.3366-0.46089 0.47011-0.35027 0.61759-0.85725 0.1014-0.33184 0.1014-1.2628zm9.5865-5.0882v2.0648h-1.7698v3.9452q0 1.1983 0.04609 1.4011 0.05531 0.19357 0.23044 0.32262 0.18436 0.12905 0.44245 0.12905 0.35949 0 1.0416-0.24888l0.22123 2.0095q-0.90334 0.38715-2.0463 0.38715-0.70055 0-1.2628-0.23044-0.56228-0.23967-0.8296-0.60838-0.2581-0.37793-0.35949-1.014-0.08296-0.45167-0.08296-1.8251v-4.2678h-1.1891v-2.0648h1.1891v-1.945l2.5994-1.5117v3.4567zm10.333 2.8944-2.5533 0.46089q-0.12905-0.76508-0.58994-1.1522-0.45167-0.38715-1.1799-0.38715-0.96787 0-1.5486 0.6729-0.5715 0.66368-0.5715 2.2307 0 1.7422 0.58072 2.4611 0.58994 0.71899 1.5762 0.71899 0.73742 0 1.2075-0.4148 0.47011-0.42402 0.66368-1.4472l2.5441 0.43324q-0.39636 1.7514-1.5209 2.6455-1.1246 0.89412-3.0142 0.89412-2.1477 0-3.429-1.355-1.2721-1.355-1.2721-3.7516 0-2.4243 1.2813-3.7701 1.2813-1.355 3.4659-1.355 1.7882 0 2.8391 0.7743 1.06 0.76507 1.5209 2.3413zm4.5444-6.6184v4.9684q1.2536-1.4656 2.9958-1.4656 0.89412 0 1.6131 0.33184 0.71898 0.33184 1.0785 0.84804 0.36871 0.51619 0.49776 1.143 0.13826 0.62681 0.13826 1.945v5.7427h-2.5902v-5.1712q0-1.5394-0.14749-1.9542-0.14748-0.4148-0.52541-0.65447-0.36871-0.24888-0.93099-0.24888-0.64525 0-1.1522 0.31341-0.50697 0.3134-0.74664 0.94943-0.23044 0.62681-0.23044 1.862v4.9038h-2.5902v-13.513zm14.619 10.398 2.581 0.43323q-0.49776 1.4195-1.5762 2.1662-1.0693 0.73742-2.6824 0.73742-2.5533 0-3.7793-1.6684-0.96787-1.3366-0.96787-3.3737 0-2.4335 1.272-3.8069 1.272-1.3827 3.217-1.3827 2.1846 0 3.4474 1.4472 1.2628 1.438 1.2075 4.4153h-6.4893q0.0277 1.1522 0.62681 1.7975 0.59915 0.63603 1.4933 0.63603 0.60837 0 1.0232-0.33184t0.62681-1.0693zm0.14748-2.6178q-0.0277-1.1246-0.58072-1.7053-0.55306-0.58994-1.3458-0.58994-0.84804 0-1.4011 0.61759-0.55307 0.6176-0.54385 1.6776zm3.7701 2.9405 2.5994-0.39637q0.16592 0.75586 0.67289 1.1522 0.50698 0.38714 1.4195 0.38714 1.0047 0 1.5117-0.36871 0.34105-0.2581 0.34105-0.69133 0-0.29497-0.18435-0.48854-0.19358-0.18436-0.86647-0.34106-3.134-0.69133-3.9729-1.2628-1.1614-0.79272-1.1614-2.203 0-1.2721 1.0047-2.1385 1.0047-0.86647 3.1156-0.86647 2.0095 0 2.9866 0.65446 0.97708 0.65447 1.3458 1.9357l-2.4427 0.45167q-0.15671-0.5715-0.59916-0.87569-0.43324-0.30419-1.2444-0.30419-1.0232 0-1.4656 0.28575-0.29496 0.20279-0.29496 0.52542 0 0.27653 0.25809 0.4701 0.35028 0.2581 2.4151 0.72821 2.074 0.4701 2.8944 1.1522 0.81116 0.69133 0.81116 1.9265 0 1.3458-1.1246 2.3137-1.1246 0.96787-3.3276 0.96787-2.0003 0-3.1709-0.81116-1.1614-0.81117-1.5209-2.203z" fill="#bbb" fill-opacity=".35294" aria-label="No matches"/>
</svg>
