<svg width="156" height="190" version="1.1" viewBox="0 0 156 190" xmlns="http://www.w3.org/2000/svg">
 <g fill="#a8a8a8">
  <path d="m16.682 5.8697c-1.0015 1.168e-4 -2.0061 0.13897-2.9785 0.42578l0.99219 3.3652c0.63692-0.18785 1.3104-0.28312 1.9863-0.2832h8.7715v-3.5078zm17.545 0v3.5078h8.7715v-3.5078zm17.543 0v3.5078h8.7734v-3.5078zm17.545 0v3.5078h8.7715v-3.5078zm17.543 0v3.5078h8.7734v-3.5078zm17.545 0v3.5078h8.7715v-3.5078zm17.545 0v3.5078h8.7715v-3.5078zm17.541 0 6e-3 3.5078c1.1053-0.0017 2.2207 0.26314 3.1973 0.76367v2e-3h2e-3c1.0906 0.55575 2.0446 1.4184 2.7051 2.4492l2.9551-1.8926c-1.0012-1.5626-2.4092-2.8383-4.0625-3.6816-1.4876-0.76244-3.1401-1.1511-4.8027-1.1484zm-132.91 7.5684c-0.28234 0.9656-0.4179 1.9625-0.41797 2.957v6.2734h3.5078v-6.2734c4.8e-5 -0.67089 0.09412-1.3394 0.2793-1.9727zm139.93 6.7148v8.7715h3.5098v-8.7715zm-140.35 11.287v8.7734h3.5078v-8.7734zm140.35 6.2559v8.7715h3.5098v-8.7715zm-140.35 11.289v8.7715h3.5078v-8.7715zm140.35 6.2559v8.7715h3.5098v-8.7715zm-140.35 11.289v8.7715h3.5078v-8.7715zm140.35 6.2539v8.7734h3.5098v-8.7734zm-140.35 11.289v8.7715h3.5078v-8.7715zm140.35 6.2559v8.7715h3.5098v-8.7715zm-140.35 11.289v8.7715h3.5078v-8.7715zm140.35 6.2539v8.7734h3.5098v-8.7734zm-140.35 11.289v8.7734h3.5078v-8.7734zm140.35 6.2559v8.7715h3.5098v-8.7715zm-140.35 11.289v8.7715h3.5078v-8.7715zm140.35 6.2559v8.7715h3.5098v-8.7715zm-140.35 11.289v8.7715h3.5078v-8.7715zm140.35 6.2539v8.7734h3.5098v-8.7734zm-136.84 11.227-3.5078 0.125c0.04363 1.2257-0.16504 2.7934 0.2168 4.5723 0.3596 1.7644 1.1742 3.4144 2.3555 4.7715l2.6465-2.3047c-0.78064-0.89683-1.3331-2.0136-1.5684-3.1777l-4e-3 -0.0234c-0.21978-1.0201-0.08168-2.3619-0.13867-3.9629zm136.21 5.4824c-0.54837 1.2113-1.4743 2.2773-2.5977 2.9941h-2e-3v2e-3c-0.83581 0.5355-1.7972 0.89041-2.7773 1.0273l0.48633 3.4766c1.4891-0.20806 2.9182-0.73979 4.1816-1.5488l2e-3 -2e-3c1.7042-1.0881 3.069-2.6568 3.9043-4.502zm-127.94 4.0957v3.5098h8.7734v-3.5098zm17.545 0v3.5098h8.7715v-3.5098zm17.545 0v3.5098h8.7715v-3.5098zm17.543 0v3.5098h8.7715v-3.5098zm17.545 0v3.5098h8.7715v-3.5098zm17.543 0v3.5098h8.7734v-3.5098zm17.545 0v3.5098h8.7715v-3.5098z" fill-opacity=".097305"/>
  <path d="m47.963 78.903-1.7948 1.7948 38.076 38.076 1.7948-1.7948z" fill-opacity=".35294"/>
  <path d="m84.244 78.903-38.076 38.076 1.7948 1.7948 38.076-38.076z" fill-opacity=".35294"/>
 </g>
 <path d="m65.964 57.16c-23.087 0-41.884 18.797-41.884 41.884s18.797 41.884 41.884 41.884c9.8102 0 18.839-3.4027 25.987-9.0777a5.0768 5.0768 0 0 0 0.88496 1.2444l32.999 32.999a5.0768 5.0768 0 0 0 7.1788 0 5.0768 5.0768 0 0 0 0-7.1788l-32.999-32.999a5.0768 5.0768 0 0 0-1.2444-0.88497c5.6751-7.148 9.0778-16.176 9.0778-25.987 0-23.087-18.797-41.884-41.884-41.884zm0 7.6152c18.971 0 34.268 15.298 34.268 34.268 0 18.971-15.298 34.268-34.268 34.268-18.971 0-34.268-15.298-34.268-34.268 0-18.971 15.298-34.268 34.268-34.268z" fill="#bbb" fill-opacity=".35135" stroke-width="1.2692"/>
</svg>
