<svg width="16" height="16" version="1.1" viewBox="0 0 16 16" xmlns="http://www.w3.org/2000/svg">
 <path d="m2.5004 2.0001c-0.82268 0-1.5004 0.69867-1.5004 1.5469v8.2176h0.00516c-0.009731 0.64305 0.49771 1.2354 1.1624 1.2354h9.6839c0.62347 0 1.1856-0.40116 1.4047-1.0031l1.6697-4.5828v-0.00135c0.28538-0.77152-0.28898-1.6315-1.0901-1.6315h-0.16606v-0.51562c0-0.8482-0.67766-1.5469-1.5004-1.5469h-4.4867l-1.49-1.2803a0.50018 0.51569 0 0 0-6.668e-4 0c-0.32942-0.283-0.74449-0.43842-1.1734-0.43842h-2.5181zm0 1.0312h2.5181c0.19524 0 0.38335 0.070592 0.53332 0.1994l1.6293 1.3998a0.50018 0.51569 0 0 0 0.32038 0.1195h4.6677c0.28223 0 0.50011 0.22464 0.50011 0.51562v0.51562h-8.5175c-0.62347 0-1.1856 0.40115-1.4047 1.0031l-0.74689 2.0504v-5.2879c0-0.29099 0.21788-0.51562 0.50011-0.51562zm1.6514 3.7812h9.6838c0.13332 0 0.20318 0.1049 0.15564 0.23297a0.50018 0.51569 0 0 0-0.0013 0.00334l-1.6703 4.5856c-0.07369 0.20248-0.25815 0.33435-0.46821 0.33435h-9.6839c-0.1326 0-0.20283-0.10412-0.15628-0.23163a0.50018 0.51569 0 0 0 6.504e-4 -6.9e-4l1.6716-4.5897c0.073689-0.20248 0.25815-0.33435 0.46821-0.33435z" fill="#444444" stroke-width=".33854"/>
</svg>
