<svg class="svg-icon" width="16" height="16" fill="currentColor" overflow="hidden" version="1.1" viewBox="0 0 16 16" xmlns="http://www.w3.org/2000/svg">
 <path d="m10.001 1c1.0745 0.040724 1.6495 0.9632 2.3608 1.6114 0.45759 0.49116 0.99718 0.91433 1.377 1.4707 0.40432 0.70179 0.21909 1.5302 0.26162 2.2996-0.009149 1.9677 0.018513 3.9365-0.014218 5.9034-0.098292 1.0657-1.1564 1.8289-2.1932 1.7149h-8.8426c-1.3448 0.049002-2.0708-1.2828-1.95-2.4647v-8.5851c-0.048997-1.3448 1.2828-2.0708 2.4648-1.95 2.1785-1.173e-4 4.3578 2.347e-4 6.5358-1.76e-4zm-5.7506 0.975c-0.59731 0.032316-1.2153-0.092615-1.7875 0.13062-0.67748 0.43843-0.44426 1.2451-0.4875 1.9107v8.0336c-0.014619 0.88248 0.89385 1.0259 1.5633 0.975 0.1408-0.08812 0.022916-0.43494 0.061702-0.62508v-2.2999c-0.032473-1.0044 0.98485-1.3844 1.8148-1.3h4.6852c1.0284-0.031176 1.3811 1.0116 1.3 1.8515v2.3735c0.5322-0.0073 1.1872 0.09155 1.4944-0.4875 0.22565-0.61653 0.09686-1.2797 0.13063-1.9215v-5.5581c-0.05315-0.66391-0.6659-1.0107-1.066-1.4696l-1.209-1.209v1.8706c0.03117 1.0284-1.0116 1.3811-1.8515 1.3h-3.3484c-1.0284 0.031176-1.3811-1.0116-1.3-1.8515-1.95e-5 -0.57428 3.9e-5 -1.1495-2.93e-5 -1.7232zm5.8501 7.8h-5.2c-0.47675 0.078812-0.2867 0.58548-0.325 0.91328v2.3367h5.8501c-0.0058-0.99971 0.01152-2.0008-0.0087-2.9996-0.03194-0.14491-0.16882-0.25171-0.31643-0.25034zm-0.325-7.8h-4.5501v2.2749c0.09291 0.47074 0.61215 0.28805 0.95008 0.32499h3.2749c0.47524-0.094644 0.28643-0.6115 0.325-0.95007 6.5e-5 -0.54991-1.3e-4 -1.1001 9.76e-5 -1.6498z" fill="#444444" stroke-width=".015406"/>
</svg>
