<svg width="16" height="16" version="1.1" viewBox="0 0 16 16" xmlns="http://www.w3.org/2000/svg">
 <g transform="matrix(13.233 0 0 13.233 -.058399 -7309.5)" fill="#f3f3f3">
  <g transform="matrix(.0029961 0 0 .0029961 -.15314 550.55)" fill="#f3f3f3">
   <path d="m232.84 614.97a154.05 154.05 0 0 0-154.05 154.05 154.05 154.05 0 0 0 154.05 154.05 154.05 154.05 0 0 0 154.05-154.05 154.05 154.05 0 0 0-154.05-154.05zm0 26.776a129.96 127.27 0 0 1 129.96 127.27 129.96 127.27 0 0 1-129.96 127.27 129.96 127.27 0 0 1-129.96-127.27 129.96 127.27 0 0 1 129.96-127.27z"/>
   <rect transform="matrix(.65317 .75721 -.60689 .79479 0 0)" x="794.88" y="319.55" width="173.03" height="36.167" rx="33.249" ry="18.083"/>
  </g>
 </g>
</svg>
